<?xml version="1.0" encoding="UTF-8" standalone="no"?>
<!-- Generator: Adobe Illustrator 16.0.0, SVG Export Plug-In . SVG Version: 6.00 Build 0)  -->
<svg xmlns:inkscape="http://www.inkscape.org/namespaces/inkscape"
  xmlns:rdf="http://www.w3.org/1999/02/22-rdf-syntax-ns#"
  xmlns="http://www.w3.org/2000/svg"
  xmlns:dc="http://purl.org/dc/elements/1.1/"
  xmlns:ns1="http://sozi.baierouge.fr"
  xmlns:cc="http://web.resource.org/cc/"
  xmlnsXlink="http://www.w3.org/1999/xlink"
  xmlns:sodipodi="http://sodipodi.sourceforge.net/DTD/sodipodi-0.dtd" id="Layer_1" enable-background="new 0 0 605.932 265.254" xml:space="preserve" viewBox="0 0 605.932 265.254" version="1.1" y="0px" x="0px">
  <g>
    <path d="m577.04 83.845c-6.816 0-12.609 4.346-14.791 10.41-4.588-12.211-16.371-20.906-30.186-20.906-13.303 0-24.723 8.066-29.641 19.574-0.863-0.051-1.723-0.08-2.588-0.08-0.916 0-1.822 0.035-2.721 0.092-3.652-29.625-28.885-52.566-59.494-52.566-12.584 0-24.258 3.883-33.9 10.504-15.344-10.412-33.863-16.5-53.809-16.5-1 0-1.998 0.023-2.994 0.047v6.816c0.994-0.035 1.99-0.055 2.988-0.055 20.438 0 39.268 6.885 54.305 18.451l3.756-2.584c8.754-6.006 19.004-9.18 29.654-9.18 26.443 0 48.82 19.766 52.049 45.98l1.039 6.793 9.127-0.301 7.465 0.234 2.01-4.709c3.906-9.123 12.836-15.018 22.754-15.018 13.641 0 24.738 11.094 24.738 24.738 0 9.918-5.896 18.848-15.016 22.754l-4.699 2.199 0.225 7.277c0 20.664-16.814 37.48-37.477 37.48-1.361 0-2.787-0.084-4.242-0.25l-7.1-0.795-1.139 7.055c-0.357 2.227-0.928 4.441-1.693 6.584l-2.703 7.594 7.773 2.146c7.125 1.963 12.102 8.498 12.102 15.893 0 9.094-7.402 16.492-16.492 16.492-7.752 0-14.531-5.492-16.131-13.062l-1.67-7.896-7.75 2.244c-3.387 0.979-6.895 1.473-10.43 1.473-11.943 0-23.277-5.777-30.324-15.461l-4.693-6.455c-16.283 17.6-39.568 28.615-65.438 28.615-0.998 0-1.994-0.021-2.988-0.057v6.791c0.996 0.029 1.994 0.062 2.994 0.062 24.633 0 47.078-9.293 64.066-24.547 8.176 11.236 21.422 18.547 36.383 18.547 4.34 0 8.539-0.621 12.516-1.77 2.289 10.859 11.926 19.012 23.465 19.012 13.248 0 23.988-10.738 23.988-23.988 0-11.035-7.459-20.322-17.605-23.123 0.91-2.537 1.59-5.178 2.035-7.904 1.664 0.188 3.355 0.293 5.076 0.293 24.838 0 44.977-20.133 44.977-44.973 0-0.867-0.035-1.732-0.082-2.588 10.623-4.545 18.303-14.627 19.424-26.623 2.848 4.062 7.553 6.723 12.887 6.723 8.693 0 15.742-7.047 15.742-15.742-0.03-8.67-7.07-15.723-15.77-15.723zm0 23.985c-4.547 0-8.246-3.699-8.246-8.246s3.699-8.244 8.246-8.244 8.246 3.697 8.246 8.244-3.7 8.246-8.25 8.246z" />
    <path d="m61.602 130.32c12.416 0 22.486-10.066 22.486-22.486 0-12.418-10.07-22.49-22.486-22.49-12.424 0-22.486 10.072-22.486 22.49 0 12.42 10.062 22.49 22.486 22.49zm0-37.477c8.262 0 14.988 6.725 14.988 14.99 0 8.27-6.727 14.992-14.988 14.992-8.268 0-14.994-6.723-14.994-14.992 0-8.262 6.726-14.987 14.994-14.987zm-23.988 63.717c-8.283 0-14.994 6.713-14.994 14.99 0 8.281 6.711 14.992 14.994 14.992s14.986-6.71 14.986-14.99c0-8.28-6.703-14.99-14.986-14.99zm0 22.48c-4.137 0-7.498-3.361-7.498-7.496 0-4.133 3.361-7.492 7.498-7.492 4.131 0 7.494 3.359 7.494 7.492 0 4.14-3.363 7.5-7.494 7.5zm140.18-145.41c7.512 0 14.08 5.07 15.967 12.33l1.828 7.057c12.689-7.219 27.318-11.406 42.92-11.592v-6.248c-13.367 0.41-26.051 3.559-37.496 8.902-2.68-10.32-12.062-17.947-23.219-17.947-13.248 0-23.988 10.74-23.988 23.988 0 2.771 0.475 5.436 1.342 7.916-4.479-1.25-9.201-1.922-14.086-1.922-28.979 0-52.471 23.492-52.471 52.473 0 4.777 0.65 9.396 1.846 13.793-17.414 7.43-29.578 24.293-29.578 43.926 0 26.492 22.146 47.973 49.471 47.973 10.426 0 20.086-3.131 28.062-8.475 2.469 19.572 19.16 34.711 39.402 34.711 14.074 0 26.432-7.326 33.486-18.363 8.604 2.85 17.744 4.518 27.229 4.807v-7.268c-10.844-0.129-21.219-2.191-30.803-5.865l-2.74 4.289c-5.967 9.332-16.127 14.902-27.172 14.902-16.199 0-29.938-12.102-31.965-28.15l-1.523-12.041-10.086 6.754c-7.043 4.715-15.305 7.207-23.891 7.207-23.145 0-41.977-18.16-41.977-40.48 0-16.012 9.824-30.545 25.025-37.031l6.006-2.561-1.711-6.303c-1.049-3.859-1.588-7.842-1.588-11.824 0-24.797 20.18-44.977 44.977-44.977 4.096 0 8.162 0.551 12.072 1.645l13.832 3.855-4.74-13.547c-0.611-1.754-0.926-3.586-0.926-5.443 0.01-9.1 7.41-16.497 16.51-16.497z" />
    <path d="m294.71 60.361c14.605-11.539 32.895-18.621 52.828-19.145l-0.041-6.727c-20.041 0.285-38.596 6.715-53.869 17.49-15.412-10.57-34.078-16.76-54.184-16.76-0.5 0-0.996 0.008-1.496 0.02v6.188c0.598-0.008 1.199-0.02 1.805-0.02 20.72 0.001 39.8 7.081 54.95 18.954zm53.98 159.1c-18.982-0.262-36.525-6.453-50.871-16.803l-2.961-2.029c-15.166 11.943-34.305 19.068-55.105 19.068-0.605 0-1.207-0.012-1.805-0.023v7.42c0.5 0.004 0.996 0.02 1.496 0.02 20.574 0 39.639-6.48 55.26-17.506 15.381 10.541 33.982 16.723 54.029 16.756l-0.06-6.91z" />
  </g
  >
  <metadata
    >
    <rdf:RDF
      >
      <cc:Work
        >
        <dc:format
          >image/svg+xml</dc:format
        >
        <dc:type rdf:resource="http://purl.org/dc/dcmitype/StillImage" />
        <cc:license rdf:resource="http://creativecommons.org/licenses/publicdomain/" />
        <dc:publisher
          >
          <cc:Agent rdf:about="http://openclipart.org/">
            <dc:title
              >Openclipart</dc:title
            >          </cc:Agent
          >        </dc:publisher
        >      </cc:Work
      >
      <cc:License rdf:about="http://creativecommons.org/licenses/publicdomain/">
        <cc:permits rdf:resource="http://creativecommons.org/ns#Reproduction" />
        <cc:permits rdf:resource="http://creativecommons.org/ns#Distribution" />
        <cc:permits rdf:resource="http://creativecommons.org/ns#DerivativeWorks" />
      </cc:License
      >    </rdf:RDF
    >  </metadata
  ></svg>
